<svg width="20" height="20" viewBox="0 0 20 20" fill="none" xmlns="http://www.w3.org/2000/svg">
  <mask id="mask0_2401_3394" style="mask-type:alpha" maskUnits="userSpaceOnUse" x="0" y="0" width="20" height="20">
  <rect width="20" height="20" fill="#52566E"/>
  </mask>
  <g mask="url(#mask0_2401_3394)">
  <path d="M9.37492 10.6249H5.20825C5.03117 10.6249 4.88273 10.565 4.76294 10.4451C4.64315 10.3253 4.58325 10.1768 4.58325 9.99963C4.58325 9.82246 4.64315 9.67405 4.76294 9.5544C4.88273 9.43475 5.03117 9.37492 5.20825 9.37492H9.37492V5.20825C9.37492 5.03117 9.43484 4.88273 9.55467 4.76294C9.67452 4.64315 9.82302 4.58325 10.0002 4.58325C10.1773 4.58325 10.3257 4.64315 10.4454 4.76294C10.5651 4.88273 10.6249 5.03117 10.6249 5.20825V9.37492H14.7915C14.9686 9.37492 15.1171 9.43484 15.2369 9.55467C15.3566 9.67452 15.4165 9.82302 15.4165 10.0002C15.4165 10.1773 15.3566 10.3257 15.2369 10.4454C15.1171 10.5651 14.9686 10.6249 14.7915 10.6249H10.6249V14.7915C10.6249 14.9686 10.565 15.1171 10.4451 15.2369C10.3253 15.3566 10.1768 15.4165 9.99963 15.4165C9.82246 15.4165 9.67405 15.3566 9.5544 15.2369C9.43475 15.1171 9.37492 14.9686 9.37492 14.7915V10.6249Z" fill="#52566E"/>
  </g>
  </svg>
  